<svg width="272" height="30" viewBox="0 0 272 30" fill="none" xmlns="http://www.w3.org/2000/svg">
<path d="M153.769 6.43672C153.971 5.75312 153.769 5.25 152.796 5.25H149.579C148.76 5.25 148.383 5.68203 148.181 6.16328C148.181 6.16328 146.542 10.1609 144.226 12.7531C143.478 13.5023 143.134 13.743 142.724 13.743C142.522 13.743 142.211 13.5023 142.211 12.8188V6.43672C142.211 5.61641 141.981 5.25 141.304 5.25H136.246C135.733 5.25 135.427 5.63281 135.427 5.98828C135.427 6.76484 136.585 6.94531 136.705 9.13281V13.8797C136.705 14.9188 136.519 15.1102 136.11 15.1102C135.017 15.1102 132.363 11.0961 130.79 6.50234C130.473 5.61094 130.161 5.25 129.337 5.25H126.119C125.202 5.25 125.016 5.68203 125.016 6.16328C125.016 7.01641 126.109 11.2547 130.101 16.8547C132.761 20.6773 136.508 22.75 139.917 22.75C141.965 22.75 142.216 22.2906 142.216 21.4977C142.216 17.8445 142.031 17.5 143.057 17.5C143.533 17.5 144.352 17.7406 146.264 19.5836C148.449 21.7711 148.809 22.75 150.033 22.75H153.25C154.167 22.75 154.632 22.2906 154.364 21.3828C153.752 19.4742 149.618 15.5477 149.432 15.2852C148.957 14.6727 149.093 14.3992 149.432 13.8523C149.437 13.8469 153.365 8.3125 153.769 6.43672Z" fill="white"/>
<path d="M84.2354 15.75L85.0115 10.6827H80.1589V7.3943C80.1589 6.00797 80.8368 4.65664 83.0101 4.65664H85.2162V0.342344C85.2162 0.342344 83.2143 0 81.3002 0C77.3039 0 74.6917 2.42703 74.6917 6.82063V10.6827H70.2495V15.75H74.6917V28H80.1589V15.75H84.2354Z" fill="white"/>
<g clip-path="url(#clip0_406_536)">
<path d="M12.2036 8.07137C8.74026 8.07137 5.9467 11.008 5.9467 14.6487C5.9467 18.2894 8.74026 21.226 12.2036 21.226C15.667 21.226 18.4605 18.2894 18.4605 14.6487C18.4605 11.008 15.667 8.07137 12.2036 8.07137ZM12.2036 18.9248C9.96551 18.9248 8.13581 17.0071 8.13581 14.6487C8.13581 12.2902 9.96006 10.3726 12.2036 10.3726C14.4472 10.3726 16.2714 12.2902 16.2714 14.6487C16.2714 17.0071 14.4417 18.9248 12.2036 18.9248ZM20.1759 7.80233C20.1759 8.65526 19.5224 9.33646 18.7165 9.33646C17.9051 9.33646 17.2571 8.64953 17.2571 7.80233C17.2571 6.95512 17.9105 6.26819 18.7165 6.26819C19.5224 6.26819 20.1759 6.95512 20.1759 7.80233ZM24.3199 9.35936C24.2274 7.3043 23.7808 5.48395 22.3487 3.98416C20.9219 2.48437 19.1902 2.01498 17.2353 1.91194C15.2204 1.79172 9.18135 1.79172 7.1665 1.91194C5.217 2.00925 3.48532 2.47865 2.05314 3.97844C0.620969 5.47823 0.179881 7.29858 0.0818609 9.35363C-0.0324953 11.4717 -0.0324953 17.82 0.0818609 19.938C0.174435 21.9931 0.620969 23.8134 2.05314 25.3132C3.48532 26.813 5.21155 27.2824 7.1665 27.3854C9.18135 27.5056 15.2204 27.5056 17.2353 27.3854C19.1902 27.2881 20.9219 26.8187 22.3487 25.3132C23.7754 23.8134 24.2219 21.9931 24.3199 19.938C24.4343 17.82 24.4343 11.4774 24.3199 9.35936ZM21.717 22.2106C21.2922 23.3326 20.4699 24.197 19.3972 24.6492C17.7907 25.3189 13.9789 25.1644 12.2036 25.1644C10.4284 25.1644 6.61106 25.3132 5.01007 24.6492C3.94274 24.2027 3.12047 23.3383 2.69027 22.2106C2.05314 20.5219 2.20017 16.5148 2.20017 14.6487C2.20017 12.7825 2.05859 8.76975 2.69027 7.08678C3.11502 5.9648 3.9373 5.10042 5.01007 4.64819C6.6165 3.97844 10.4284 4.133 12.2036 4.133C13.9789 4.133 17.7962 3.98416 19.3972 4.64819C20.4645 5.09469 21.2868 5.95907 21.717 7.08678C22.3541 8.77547 22.2071 12.7825 22.2071 14.6487C22.2071 16.5148 22.3541 20.5276 21.717 22.2106Z" fill="white"/>
</g>
<g clip-path="url(#clip1_406_536)">
<path d="M253.087 21.7328C253.087 21.8422 252.961 21.9297 252.802 21.9297C252.622 21.9461 252.496 21.8586 252.496 21.7328C252.496 21.6234 252.622 21.5359 252.78 21.5359C252.945 21.5195 253.087 21.607 253.087 21.7328ZM251.384 21.4867C251.345 21.5961 251.455 21.7219 251.619 21.7547C251.762 21.8094 251.926 21.7547 251.959 21.6453C251.992 21.5359 251.888 21.4102 251.723 21.3609C251.581 21.3227 251.422 21.3773 251.384 21.4867ZM253.805 21.3938C253.646 21.432 253.536 21.5359 253.553 21.6617C253.569 21.7711 253.712 21.8422 253.876 21.8039C254.035 21.7656 254.144 21.6617 254.128 21.5523C254.111 21.4484 253.964 21.3773 253.805 21.3938ZM257.409 0.4375C249.812 0.4375 244 6.19609 244 13.7812C244 19.8461 247.823 25.0359 253.284 26.8625C253.985 26.9883 254.232 26.5562 254.232 26.2008C254.232 25.8617 254.216 23.9914 254.216 22.843C254.216 22.843 250.381 23.6633 249.576 21.2133C249.576 21.2133 248.952 19.6219 248.053 19.2117C248.053 19.2117 246.799 18.3531 248.141 18.3695C248.141 18.3695 249.505 18.4789 250.255 19.7805C251.455 21.8914 253.465 21.2844 254.248 20.9234C254.374 20.0484 254.73 19.4414 255.125 19.0805C252.063 18.7414 248.974 18.2984 248.974 13.0375C248.974 11.5336 249.39 10.7789 250.266 9.81641C250.124 9.46094 249.658 7.99531 250.409 6.10313C251.553 5.74766 254.188 7.57969 254.188 7.57969C255.284 7.27344 256.461 7.11484 257.628 7.11484C258.795 7.11484 259.972 7.27344 261.068 7.57969C261.068 7.57969 263.703 5.74219 264.847 6.10313C265.598 8.00078 265.132 9.46094 264.99 9.81641C265.866 10.7844 266.403 11.5391 266.403 13.0375C266.403 18.3148 263.177 18.7359 260.115 19.0805C260.619 19.5125 261.046 20.3328 261.046 21.618C261.046 23.4609 261.029 25.7414 261.029 26.1898C261.029 26.5453 261.281 26.9773 261.977 26.8516C267.455 25.0359 271.168 19.8461 271.168 13.7812C271.168 6.19609 265.006 0.4375 257.409 0.4375ZM249.324 19.2992C249.253 19.3539 249.269 19.4797 249.362 19.5836C249.45 19.6711 249.576 19.7094 249.647 19.6383C249.718 19.5836 249.702 19.4578 249.609 19.3539C249.521 19.2664 249.395 19.2281 249.324 19.2992ZM248.733 18.8562C248.694 18.9273 248.749 19.0148 248.859 19.0695C248.946 19.1242 249.056 19.1078 249.094 19.0312C249.132 18.9602 249.078 18.8727 248.968 18.818C248.859 18.7852 248.771 18.8016 248.733 18.8562ZM250.507 20.8031C250.42 20.8742 250.452 21.0383 250.578 21.1422C250.704 21.268 250.863 21.2844 250.934 21.1969C251.006 21.1258 250.973 20.9617 250.863 20.8578C250.743 20.732 250.578 20.7156 250.507 20.8031ZM249.883 19.9992C249.795 20.0539 249.795 20.1961 249.883 20.3219C249.97 20.4477 250.118 20.5023 250.19 20.4477C250.277 20.3766 250.277 20.2344 250.19 20.1086C250.113 19.9828 249.97 19.9281 249.883 19.9992Z" fill="white"/>
</g>
<g clip-path="url(#clip2_406_536)">
<path d="M190.523 24.5004H185.408V8.1434H190.523V24.5004ZM187.962 5.91215C186.327 5.91215 185 4.56684 185 2.94262C185 2.16245 185.312 1.41423 185.868 0.862563C186.423 0.310898 187.177 0.000976562 187.962 0.000976562C188.748 0.000976562 189.502 0.310898 190.057 0.862563C190.613 1.41423 190.925 2.16245 190.925 2.94262C190.925 4.56684 189.598 5.91215 187.962 5.91215ZM209.668 24.5004H204.563V16.5379C204.563 14.6403 204.525 12.2067 201.904 12.2067C199.244 12.2067 198.837 14.2684 198.837 16.4012V24.5004H193.727V8.1434H198.633V10.3746H198.705C199.388 9.08949 201.056 7.73324 203.545 7.73324C208.722 7.73324 209.673 11.1184 209.673 15.5153V24.5004H209.668Z" fill="white"/>
</g>
<defs>
<clipPath id="clip0_406_536">
<rect width="24.396" height="29.3088" fill="white"/>
</clipPath>
<clipPath id="clip1_406_536">
<rect width="27.1683" height="28" fill="white" transform="translate(244)"/>
</clipPath>
<clipPath id="clip2_406_536">
<rect width="24.6733" height="28" fill="white" transform="translate(185)"/>
</clipPath>
</defs>
</svg>
